<svg version="1.1" viewBox="0.0 0.0 127.9002624671916 632.0577427821522" fill="none" stroke="none" stroke-linecap="square" stroke-miterlimit="10" xmlns:xlink="http://www.w3.org/1999/xlink" xmlns="http://www.w3.org/2000/svg"><clipPath id="p.0"><path d="m0 0l127.90026 0l0 632.05774l-127.90026 0l0 -632.05774z" clip-rule="nonzero"/></clipPath><g clip-path="url(#p.0)"><path fill="#000000" fill-opacity="0.0" d="m0 0l127.90026 0l0 632.05774l-127.90026 0z" fill-rule="evenodd"/><path fill="#000000" fill-opacity="0.0" d="m-2.2607665 -7.9998817l164.34647 0l0 607.5275l-164.34647 0z" fill-rule="evenodd"/><path fill="#999999" d="m23.913275 17.885117l0 -2.0l6.125 0l0 2.0l-6.125 0z" fill-rule="nonzero"/><path fill="#999999" d="m55.676735 14.760117q0 -2.875 0.59375 -4.625q0.59375 -1.75 1.75 -2.703125q1.171875 -0.953125 2.953125 -0.953125q1.296875 0 2.28125 0.53125q0.984375 0.515625 1.625 1.515625q0.640625 0.984375 1.0 2.40625q0.375 1.421875 0.375 3.828125q0 2.859375 -0.59375 4.609375q-0.578125 1.75 -1.75 2.71875q-1.15625 0.953125 -2.9375 0.953125q-2.34375 0 -3.6875 -1.6875q-1.609375 -2.015625 -1.609375 -6.59375zm2.046875 0q0 4.0 0.9375 5.328125q0.9375 1.3125 2.3125 1.3125q1.359375 0 2.296875 -1.328125q0.9375 -1.328125 0.9375 -5.3125q0 -4.0 -0.9375 -5.3125q-0.9375 -1.328125 -2.328125 -1.328125q-1.375 0 -2.1875 1.171875q-1.03125 1.484375 -1.03125 5.46875zm11.678452 8.0l0 -2.265625l2.265625 0l0 2.265625l-2.265625 0zm11.560257 0l0 -3.890625l-7.046875 0l0 -1.8125l7.40625 -10.515625l1.625 0l0 10.515625l2.1875 0l0 1.8125l-2.1875 0l0 3.890625l-1.984375 0zm0 -5.703125l0 -7.3125l-5.078125 7.3125l5.078125 0zm12.8012085 -1.390625l0 -1.859375l10.75 -4.53125l0 1.984375l-8.515625 3.484375l8.515625 3.53125l0 1.984375l-10.75 -4.59375z" fill-rule="nonzero"/><path fill="#999999" d="m23.913275 72.2851l0 -2.0l6.125 0l0 2.0l-6.125 0z" fill-rule="nonzero"/><path fill="#999999" d="m63.176735 77.1601l-1.984375 0l0 -12.6875q-0.71875 0.6875 -1.890625 1.375q-1.171875 0.6875 -2.09375 1.03125l0 -1.9375q1.671875 -0.78125 2.921875 -1.8906212q1.25 -1.125 1.765625 -2.171875l1.28125 0l0 16.281246z" fill-rule="nonzero"/><path fill="#999999" d="m23.913275 126.6851l0 -2.0l6.125 0l0 2.0l-6.125 0z" fill-rule="nonzero"/><path fill="#999999" d="m55.69236 127.27885l1.984375 -0.265625q0.34375 1.6875076 1.171875 2.4375076q0.828125 0.75 2.015625 0.75q1.390625 0 2.359375 -0.96875q0.96875 -0.984375 0.96875 -2.4218826q0 -1.375 -0.890625 -2.265625q-0.890625 -0.890625 -2.28125 -0.890625q-0.5625 0 -1.40625 0.234375l0.21875 -1.75q0.203125 0.015625 0.328125 0.015625q1.265625 0 2.28125 -0.65625q1.03125 -0.671875 1.03125 -2.046875q0 -1.09375 -0.75 -1.8125q-0.734375 -0.71875 -1.90625 -0.71875q-1.171875 0 -1.953125 0.734375q-0.765625 0.71875 -0.984375 2.1875l-1.984375 -0.359375q0.359375 -2.0 1.65625 -3.09375q1.296875 -1.109375 3.21875 -1.109375q1.328125 0 2.4375 0.578125q1.125 0.5625 1.71875 1.546875q0.59375 0.984375 0.59375 2.09375q0 1.046875 -0.578125 1.90625q-0.5625 0.859375 -1.65625 1.375q1.4375 0.328125 2.234375 1.375q0.796875 1.046875 0.796875 2.609375q0 2.1250076 -1.5625 3.6093826q-1.546875 1.46875 -3.90625 1.46875q-2.140625 0 -3.546875 -1.265625q-1.40625 -1.265625 -1.609375 -3.2968826z" fill-rule="nonzero"/><path fill="#999999" d="m23.913275 181.0851l0 -2.0l6.125 0l0 2.0l-6.125 0z" fill-rule="nonzero"/><path fill="#999999" d="m63.176735 185.9601l-1.984375 0l0 -12.6875q-0.71875 0.6875 -1.890625 1.375q-1.171875 0.6875 -2.09375 1.03125l0 -1.9375q1.671875 -0.78125 2.921875 -1.890625q1.25 -1.125 1.765625 -2.171875l1.28125 0l0 16.28125zm5.1003265 -8.0q0 -2.875 0.59375 -4.625q0.59375 -1.75 1.75 -2.703125q1.171875 -0.953125 2.953125 -0.953125q1.296875 0 2.28125 0.53125q0.984375 0.515625 1.625 1.515625q0.640625 0.984375 1.0 2.40625q0.375 1.421875 0.375 3.828125q0 2.859375 -0.59375 4.609375q-0.578125 1.75 -1.75 2.71875q-1.15625 0.953125 -2.9375 0.953125q-2.34375 0 -3.6875 -1.6875q-1.609375 -2.015625 -1.609375 -6.59375zm2.046875 0q0 4.0 0.9375 5.328125q0.9375 1.3125 2.3125 1.3125q1.359375 0 2.296875 -1.328125q0.9375 -1.328125 0.9375 -5.3125q0 -4.0 -0.9375 -5.3125q-0.9375 -1.328125 -2.328125 -1.328125q-1.375 0 -2.1875 1.171875q-1.03125 1.484375 -1.03125 5.46875z" fill-rule="nonzero"/><path fill="#999999" d="m23.913275 235.48509l0 -2.0l6.125 0l0 2.0l-6.125 0z" fill-rule="nonzero"/><path fill="#999999" d="m66.145485 238.45384l0 1.90625l-10.71875 0q-0.03125 -0.71875 0.234375 -1.390625q0.40625 -1.09375 1.296875 -2.15625q0.90625 -1.0625 2.609375 -2.453125q2.65625 -2.171875 3.578125 -3.4375q0.9375 -1.265625 0.9375 -2.390625q0 -1.1875 -0.859375 -2.0q-0.84375 -0.8125 -2.203125 -0.8125q-1.4375 0 -2.296875 0.875q-0.859375 0.859375 -0.875 2.375l-2.046875 -0.203125q0.203125 -2.296875 1.578125 -3.484375q1.375 -1.203125 3.6875 -1.203125q2.328125 0 3.6875 1.296875q1.375 1.28125 1.375 3.203125q0 0.96875 -0.40625 1.921875q-0.390625 0.9375 -1.328125 1.984375q-0.921875 1.03125 -3.0625 2.84375q-1.796875 1.5 -2.3125 2.046875q-0.5 0.53125 -0.828125 1.078125l7.953125 0zm2.1315765 -6.09375q0 -2.875 0.59375 -4.625q0.59375 -1.75 1.75 -2.703125q1.171875 -0.953125 2.953125 -0.953125q1.296875 0 2.28125 0.53125q0.984375 0.515625 1.625 1.515625q0.640625 0.984375 1.0 2.40625q0.375 1.421875 0.375 3.828125q0 2.859375 -0.59375 4.609375q-0.578125 1.75 -1.75 2.71875q-1.15625 0.953125 -2.9375 0.953125q-2.34375 0 -3.6875 -1.6875q-1.609375 -2.015625 -1.609375 -6.59375zm2.046875 0q0 4.0 0.9375 5.328125q0.9375 1.3125 2.3125 1.3125q1.359375 0 2.296875 -1.328125q0.9375 -1.328125 0.9375 -5.3125q0 -4.0 -0.9375 -5.3125q-0.9375 -1.328125 -2.328125 -1.328125q-1.375 0 -2.1875 1.171875q-1.03125 1.484375 -1.03125 5.46875z" fill-rule="nonzero"/><path fill="#999999" d="m23.913275 289.8851l0 -2.0l6.125 0l0 2.0l-6.125 0z" fill-rule="nonzero"/><path fill="#999999" d="m55.69236 290.47885l1.984375 -0.265625q0.34375 1.6875 1.171875 2.4375q0.828125 0.75 2.015625 0.75q1.390625 0 2.359375 -0.96875q0.96875 -0.984375 0.96875 -2.421875q0 -1.375 -0.890625 -2.265625q-0.890625 -0.890625 -2.28125 -0.890625q-0.5625 0 -1.40625 0.234375l0.21875 -1.75q0.203125 0.015625 0.328125 0.015625q1.265625 0 2.28125 -0.65625q1.03125 -0.671875 1.03125 -2.046875q0 -1.09375 -0.75 -1.8125q-0.734375 -0.71875 -1.90625 -0.71875q-1.171875 0 -1.953125 0.734375q-0.765625 0.71875 -0.984375 2.1875l-1.984375 -0.359375q0.359375 -2.0 1.65625 -3.09375q1.296875 -1.109375 3.21875 -1.109375q1.328125 0 2.4375 0.578125q1.125 0.5625 1.71875 1.546875q0.59375 0.984375 0.59375 2.09375q0 1.046875 -0.578125 1.90625q-0.5625 0.859375 -1.65625 1.375q1.4375 0.328125 2.234375 1.375q0.796875 1.046875 0.796875 2.609375q0 2.125 -1.5625 3.609375q-1.546875 1.46875 -3.90625 1.46875q-2.140625 0 -3.546875 -1.265625q-1.40625 -1.265625 -1.609375 -3.296875zm12.584702 -3.71875q0 -2.875 0.59375 -4.625q0.59375 -1.75 1.75 -2.703125q1.171875 -0.953125 2.953125 -0.953125q1.296875 0 2.28125 0.53125q0.984375 0.515625 1.625 1.515625q0.640625 0.984375 1.0 2.40625q0.375 1.421875 0.375 3.828125q0 2.859375 -0.59375 4.609375q-0.578125 1.75 -1.75 2.71875q-1.15625 0.953125 -2.9375 0.953125q-2.34375 0 -3.6875 -1.6875q-1.609375 -2.015625 -1.609375 -6.59375zm2.046875 0q0 4.0 0.9375 5.328125q0.9375 1.3125 2.3125 1.3125q1.359375 0 2.296875 -1.328125q0.9375 -1.328125 0.9375 -5.3125q0 -4.0 -0.9375 -5.3125q-0.9375 -1.328125 -2.328125 -1.328125q-1.375 0 -2.1875 1.171875q-1.03125 1.484375 -1.03125 5.46875z" fill-rule="nonzero"/><path fill="#999999" d="m23.913275 344.2851l0 -2.0l6.125 0l0 2.0l-6.125 0z" fill-rule="nonzero"/><path fill="#999999" d="m55.676735 344.9101l2.09375 -0.171875q0.234375 1.53125 1.078125 2.296875q0.84375 0.765625 2.046875 0.765625q1.4375 0 2.421875 -1.078125q1.0 -1.09375 1.0 -2.890625q0 -1.703125 -0.953125 -2.6875q-0.953125 -0.984375 -2.5 -0.984375q-0.96875 0 -1.75 0.4375q-0.765625 0.4375 -1.21875 1.140625l-1.859375 -0.25l1.5625 -8.328125l8.078125 0l0 1.90625l-6.484375 0l-0.875 4.359375q1.46875 -1.015625 3.078125 -1.015625q2.109375 0 3.5625 1.46875q1.46875 1.46875 1.46875 3.78125q0 2.203125 -1.28125 3.8125q-1.5625 1.96875 -4.25 1.96875q-2.21875 0 -3.625 -1.234375q-1.390625 -1.25 -1.59375 -3.296875zm12.600327 -3.75q0 -2.875 0.59375 -4.625q0.59375 -1.75 1.75 -2.703125q1.171875 -0.953125 2.953125 -0.953125q1.296875 0 2.28125 0.53125q0.984375 0.515625 1.625 1.515625q0.640625 0.984375 1.0 2.40625q0.375 1.421875 0.375 3.828125q0 2.859375 -0.59375 4.609375q-0.578125 1.75 -1.75 2.71875q-1.15625 0.953125 -2.9375 0.953125q-2.34375 0 -3.6875 -1.6875q-1.609375 -2.015625 -1.609375 -6.59375zm2.046875 0q0 4.0 0.9375 5.328125q0.9375 1.3125 2.3125 1.3125q1.359375 0 2.296875 -1.328125q0.9375 -1.328125 0.9375 -5.3125q0 -4.0 -0.9375 -5.3125q-0.9375 -1.328125 -2.328125 -1.328125q-1.375 0 -2.1875 1.171875q-1.03125 1.484375 -1.03125 5.46875z" fill-rule="nonzero"/><path fill="#999999" d="m23.913275 398.6851l0 -2.0l6.125 0l0 2.0l-6.125 0z" fill-rule="nonzero"/><path fill="#999999" d="m63.176735 403.5601l-1.984375 0l0 -12.6875q-0.71875 0.6875 -1.890625 1.375q-1.171875 0.6875 -2.09375 1.03125l0 -1.9375q1.671875 -0.78125 2.921875 -1.890625q1.25 -1.125 1.765625 -2.171875l1.28125 0l0 16.28125zm5.1003265 -8.0q0 -2.875 0.59375 -4.625q0.59375 -1.75 1.75 -2.703125q1.171875 -0.953125 2.953125 -0.953125q1.296875 0 2.28125 0.53125q0.984375 0.515625 1.625 1.515625q0.640625 0.984375 1.0 2.40625q0.375 1.421875 0.375 3.828125q0 2.859375 -0.59375 4.609375q-0.578125 1.75 -1.75 2.71875q-1.15625 0.953125 -2.9375 0.953125q-2.34375 0 -3.6875 -1.6875q-1.609375 -2.015625 -1.609375 -6.59375zm2.046875 0q0 4.0 0.9375 5.328125q0.9375 1.3125 2.3125 1.3125q1.359375 0 2.296875 -1.328125q0.9375 -1.328125 0.9375 -5.3125q0 -4.0 -0.9375 -5.3125q-0.9375 -1.328125 -2.328125 -1.328125q-1.375 0 -2.1875 1.171875q-1.03125 1.484375 -1.03125 5.46875zm10.553452 0q0 -2.875 0.59375 -4.625q0.59375 -1.75 1.75 -2.703125q1.171875 -0.953125 2.953125 -0.953125q1.296875 0 2.28125 0.53125q0.984375 0.515625 1.625 1.515625q0.640625 0.984375 1.0 2.40625q0.375 1.421875 0.375 3.828125q0 2.859375 -0.59375 4.609375q-0.578125 1.75 -1.75 2.71875q-1.15625 0.953125 -2.9375 0.953125q-2.34375 0 -3.6875 -1.6875q-1.609375 -2.015625 -1.609375 -6.59375zm2.046875 0q0 4.0 0.9375 5.328125q0.9375 1.3125 2.3125 1.3125q1.359375 0 2.296875 -1.328125q0.9375 -1.328125 0.9375 -5.3125q0 -4.0 -0.9375 -5.3125q-0.9375 -1.328125 -2.328125 -1.328125q-1.375 0 -2.1875 1.171875q-1.03125 1.484375 -1.03125 5.46875z" fill-rule="nonzero"/><path fill="#999999" d="m23.913275 453.08508l0 -2.0l6.125 0l0 2.0l-6.125 0z" fill-rule="nonzero"/><path fill="#999999" d="m63.176735 457.96008l-1.984375 0l0 -12.6875q-0.71875 0.6875 -1.890625 1.375q-1.171875 0.6875 -2.09375 1.03125l0 -1.9375q1.671875 -0.78125 2.921875 -1.890625q1.25 -1.125 1.765625 -2.171875l1.28125 0l0 16.28125zm5.1003265 -4.25l2.09375 -0.171875q0.234375 1.53125 1.078125 2.296875q0.84375 0.765625 2.046875 0.765625q1.4375 0 2.421875 -1.078125q1.0 -1.09375 1.0 -2.890625q0 -1.703125 -0.953125 -2.6875q-0.953125 -0.984375 -2.5 -0.984375q-0.96875 0 -1.75 0.4375q-0.765625 0.4375 -1.21875 1.140625l-1.859375 -0.25l1.5625 -8.328125l8.078125 0l0 1.90625l-6.484375 0l-0.875 4.359375q1.46875 -1.015625 3.078125 -1.015625q2.109375 0 3.5625 1.46875q1.46875 1.46875 1.46875 3.78125q0 2.203125 -1.28125 3.8125q-1.5625 1.96875 -4.25 1.96875q-2.21875 0 -3.625 -1.234375q-1.390625 -1.25 -1.59375 -3.296875zm12.600327 -3.75q0 -2.875 0.59375 -4.625q0.59375 -1.75 1.75 -2.703125q1.171875 -0.953125 2.953125 -0.953125q1.296875 0 2.28125 0.53125q0.984375 0.515625 1.625 1.515625q0.640625 0.984375 1.0 2.40625q0.375 1.421875 0.375 3.828125q0 2.859375 -0.59375 4.609375q-0.578125 1.75 -1.75 2.71875q-1.15625 0.953125 -2.9375 0.953125q-2.34375 0 -3.6875 -1.6875q-1.609375 -2.015625 -1.609375 -6.59375zm2.046875 0q0 4.0 0.9375 5.328125q0.9375 1.3125 2.3125 1.3125q1.359375 0 2.296875 -1.328125q0.9375 -1.328125 0.9375 -5.3125q0 -4.0 -0.9375 -5.3125q-0.9375 -1.328125 -2.328125 -1.328125q-1.375 0 -2.1875 1.171875q-1.03125 1.484375 -1.03125 5.46875z" fill-rule="nonzero"/><path fill="#999999" d="m23.913275 507.48505l0 -2.0l6.125 0l0 2.0l-6.125 0z" fill-rule="nonzero"/><path fill="#999999" d="m66.145485 510.4538l0 1.90625l-10.71875 0q-0.03125 -0.71875 0.234375 -1.390625q0.40625 -1.09375 1.296875 -2.15625q0.90625 -1.0625 2.609375 -2.453125q2.65625 -2.171875 3.578125 -3.4375q0.9375 -1.265625 0.9375 -2.390625q0 -1.1875 -0.859375 -2.0q-0.84375 -0.8125 -2.203125 -0.8125q-1.4375 0 -2.296875 0.875q-0.859375 0.859375 -0.875 2.375l-2.046875 -0.203125q0.203125 -2.296875 1.578125 -3.484375q1.375 -1.203125 3.6875 -1.203125q2.328125 0 3.6875 1.296875q1.375 1.28125 1.375 3.203125q0 0.96875 -0.40625 1.921875q-0.390625 0.9375 -1.328125 1.984375q-0.921875 1.03125 -3.0625 2.84375q-1.796875 1.5 -2.3125 2.046875q-0.5 0.53125 -0.828125 1.078125l7.953125 0zm2.1315765 -6.09375q0 -2.875 0.59375 -4.625q0.59375 -1.75 1.75 -2.703125q1.171875 -0.953125 2.953125 -0.953125q1.296875 0 2.28125 0.53125q0.984375 0.515625 1.625 1.515625q0.640625 0.984375 1.0 2.40625q0.375 1.421875 0.375 3.828125q0 2.859375 -0.59375 4.609375q-0.578125 1.75 -1.75 2.71875q-1.15625 0.953125 -2.9375 0.953125q-2.34375 0 -3.6875 -1.6875q-1.609375 -2.015625 -1.609375 -6.59375zm2.046875 0q0 4.0 0.9375 5.328125q0.9375 1.3125 2.3125 1.3125q1.359375 0 2.296875 -1.328125q0.9375 -1.328125 0.9375 -5.3125q0 -4.0 -0.9375 -5.3125q-0.9375 -1.328125 -2.328125 -1.328125q-1.375 0 -2.1875 1.171875q-1.03125 1.484375 -1.03125 5.46875zm10.553452 0q0 -2.875 0.59375 -4.625q0.59375 -1.75 1.75 -2.703125q1.171875 -0.953125 2.953125 -0.953125q1.296875 0 2.28125 0.53125q0.984375 0.515625 1.625 1.515625q0.640625 0.984375 1.0 2.40625q0.375 1.421875 0.375 3.828125q0 2.859375 -0.59375 4.609375q-0.578125 1.75 -1.75 2.71875q-1.15625 0.953125 -2.9375 0.953125q-2.34375 0 -3.6875 -1.6875q-1.609375 -2.015625 -1.609375 -6.59375zm2.046875 0q0 4.0 0.9375 5.328125q0.9375 1.3125 2.3125 1.3125q1.359375 0 2.296875 -1.328125q0.9375 -1.328125 0.9375 -5.3125q0 -4.0 -0.9375 -5.3125q-0.9375 -1.328125 -2.328125 -1.328125q-1.375 0 -2.1875 1.171875q-1.03125 1.484375 -1.03125 5.46875z" fill-rule="nonzero"/><path fill="#999999" d="m23.913275 561.8851l0 -2.0l6.125 0l0 2.0l-6.125 0z" fill-rule="nonzero"/><path fill="#999999" d="m66.145485 564.8538l0 1.90625l-10.71875 0q-0.03125 -0.71875 0.234375 -1.390625q0.40625 -1.09375 1.296875 -2.15625q0.90625 -1.0625 2.609375 -2.453125q2.65625 -2.171875 3.578125 -3.4375q0.9375 -1.265625 0.9375 -2.390625q0 -1.1875 -0.859375 -2.0q-0.84375 -0.8125 -2.203125 -0.8125q-1.4375 0 -2.296875 0.875q-0.859375 0.859375 -0.875 2.375l-2.046875 -0.203125q0.203125 -2.296875 1.578125 -3.484375q1.375 -1.203125 3.6875 -1.203125q2.328125 0 3.6875 1.296875q1.375 1.28125 1.375 3.203125q0 0.96875 -0.40625 1.921875q-0.390625 0.9375 -1.328125 1.984375q-0.921875 1.03125 -3.0625 2.84375q-1.796875 1.5 -2.3125 2.046875q-0.5 0.53125 -0.828125 1.078125l7.953125 0zm2.1315765 -2.34375l2.09375 -0.171875q0.234375 1.53125 1.078125 2.296875q0.84375 0.765625 2.046875 0.765625q1.4375 0 2.421875 -1.078125q1.0 -1.09375 1.0 -2.890625q0 -1.703125 -0.953125 -2.6875q-0.953125 -0.984375 -2.5 -0.984375q-0.96875 0 -1.75 0.4375q-0.765625 0.4375 -1.21875 1.140625l-1.859375 -0.25l1.5625 -8.328125l8.078125 0l0 1.90625l-6.484375 0l-0.875 4.359375q1.46875 -1.015625 3.078125 -1.015625q2.109375 0 3.5625 1.46875q1.46875 1.46875 1.46875 3.78125q0 2.203125 -1.28125 3.8125q-1.5625 1.96875 -4.25 1.96875q-2.21875 0 -3.625 -1.234375q-1.390625 -1.25 -1.59375 -3.296875zm12.600327 -3.75q0 -2.875 0.59375 -4.625q0.59375 -1.75 1.75 -2.703125q1.171875 -0.953125 2.953125 -0.953125q1.296875 0 2.28125 0.53125q0.984375 0.515625 1.625 1.515625q0.640625 0.984375 1.0 2.40625q0.375 1.421875 0.375 3.828125q0 2.859375 -0.59375 4.609375q-0.578125 1.75 -1.75 2.71875q-1.15625 0.953125 -2.9375 0.953125q-2.34375 0 -3.6875 -1.6875q-1.609375 -2.015625 -1.609375 -6.59375zm2.046875 0q0 4.0 0.9375 5.328125q0.9375 1.3125 2.3125 1.3125q1.359375 0 2.296875 -1.328125q0.9375 -1.328125 0.9375 -5.3125q0 -4.0 -0.9375 -5.3125q-0.9375 -1.328125 -2.328125 -1.328125q-1.375 0 -2.1875 1.171875q-1.03125 1.484375 -1.03125 5.46875z" fill-rule="nonzero"/><path fill="#999999" d="m23.913275 616.2851l0 -2.0l6.125 0l0 2.0l-6.125 0z" fill-rule="nonzero"/><path fill="#999999" d="m66.72361 614.06635l-10.75 4.59375l0 -1.984375l8.515625 -3.53125l-8.515625 -3.484375l0 -1.984375l10.75 4.53125l0 1.859375zm8.494278 2.8125l1.984375 -0.265625q0.34375 1.6875 1.171875 2.4375q0.828125 0.75 2.015625 0.75q1.390625 0 2.359375 -0.96875q0.96875 -0.984375 0.96875 -2.421875q0 -1.375 -0.890625 -2.265625q-0.890625 -0.890625 -2.28125 -0.890625q-0.5625 0 -1.40625 0.234375l0.21875 -1.75q0.203125 0.015625 0.328125 0.015625q1.265625 0 2.28125 -0.65625q1.03125 -0.671875 1.03125 -2.046875q0 -1.09375 -0.75 -1.8125q-0.734375 -0.71875 -1.90625 -0.71875q-1.171875 0 -1.953125 0.734375q-0.765625 0.71875 -0.984375 2.1875l-1.984375 -0.359375q0.359375 -2.0 1.65625 -3.09375q1.296875 -1.109375 3.21875 -1.109375q1.328125 0 2.4375 0.578125q1.125 0.5625 1.71875 1.546875q0.59375 0.984375 0.59375 2.09375q0 1.046875 -0.578125 1.90625q-0.5625 0.859375 -1.65625 1.375q1.4375 0.328125 2.234375 1.375q0.796875 1.046875 0.796875 2.609375q0 2.125 -1.5625 3.609375q-1.546875 1.46875 -3.90625 1.46875q-2.140625 0 -3.546875 -1.265625q-1.40625 -1.265625 -1.609375 -3.296875zm12.584702 -3.71875q0 -2.875 0.59375 -4.625q0.59375 -1.75 1.75 -2.703125q1.171875 -0.953125 2.953125 -0.953125q1.296875 0 2.28125 0.53125q0.984375 0.515625 1.625 1.515625q0.640625 0.984375 1.0 2.40625q0.375 1.421875 0.375 3.828125q0 2.859375 -0.59375 4.609375q-0.578125 1.75 -1.75 2.71875q-1.15625 0.953125 -2.9375 0.953125q-2.34375 0 -3.6875 -1.6875q-1.609375 -2.015625 -1.609375 -6.59375zm2.046875 0q0 4.0 0.9375 5.328125q0.9375 1.3125 2.3125 1.3125q1.359375 0 2.296875 -1.328125q0.9375 -1.328125 0.9375 -5.3125q0 -4.0 -0.9375 -5.3125q-0.9375 -1.328125 -2.328125 -1.328125q-1.375 0 -2.1875 1.171875q-1.03125 1.484375 -1.03125 5.46875zm10.553452 0q0 -2.875 0.59375 -4.625q0.59375 -1.75 1.75 -2.703125q1.171875 -0.953125 2.953125 -0.953125q1.296875 0 2.28125 0.53125q0.984375 0.515625 1.625 1.515625q0.640625 0.984375 1.0 2.40625q0.375 1.421875 0.375 3.828125q0 2.859375 -0.59375 4.609375q-0.578125 1.75 -1.75 2.71875q-1.15625 0.953125 -2.9375 0.953125q-2.34375 0 -3.6875 -1.6875q-1.609375 -2.015625 -1.609375 -6.59375zm2.046875 0q0 4.0 0.9375 5.328125q0.9375 1.3125 2.3125 1.3125q1.359375 0 2.296875 -1.328125q0.9375 -1.328125 0.9375 -5.3125q0 -4.0 -0.9375 -5.3125q-0.9375 -1.328125 -2.328125 -1.328125q-1.375 0 -2.1875 1.171875q-1.03125 1.484375 -1.03125 5.46875z" fill-rule="nonzero"/><defs><linearGradient id="p.1" gradientUnits="userSpaceOnUse" gradientTransform="matrix(25.106481894807644 0.0 0.0 25.106481894807644 0.0 0.0)" spreadMethod="pad" x1="0.02928050905177507" y1="-0.0069273233798853116" x2="0.024167495210897044" y2="25.099554050787095"><stop offset="0.0" stop-color="#000e96"/><stop offset="0.18" stop-color="#00cef9"/><stop offset="0.45" stop-color="#fff302"/><stop offset="0.62" stop-color="#ff9900"/><stop offset="0.77" stop-color="#ff0000"/><stop offset="1.0" stop-color="#00063c"/></linearGradient></defs><path fill="url(#p.1)" d="m0.73512965 -0.16918057l23.275589 0l0 630.3307l-23.275589 0z" fill-rule="evenodd"/><path fill="#000000" fill-opacity="0.0" d="m89.503365 397.1286l0 -127.968506l31.11811 0l0 127.968506z" fill-rule="evenodd"/><path fill="#999999" d="m108.51337 372.66885l0 -2.875l1.609375 0q-1.875 -1.53125 -1.875 -3.65625q0 -1.125 0.46875 -1.953125q0.46875 -0.828125 1.40625 -1.359375q-0.9375 -0.78125 -1.40625 -1.671875q-0.46875 -0.90625 -0.46875 -1.921875q0 -1.296875 0.53125 -2.1875q0.515625 -0.890625 1.546875 -1.34375q0.75 -0.3125 2.421875 -0.3125l7.515625 0l0 3.109375l-6.71875 0q-1.75 0 -2.25 0.3125q-0.671875 0.4375 -0.671875 1.328125q0 0.65625 0.40625 1.234375q0.390625 0.578125 1.171875 0.828125q0.765625 0.25 2.421875 0.25l5.640625 0l0 3.109375l-6.4375 0q-1.71875 0 -2.21875 0.171875q-0.5 0.15625 -0.734375 0.515625q-0.25 0.34375 -0.25 0.9375q0 0.71875 0.390625 1.296875q0.390625 0.578125 1.125 0.828125q0.71875 0.25 2.421875 0.25l5.703125 0l0 3.109375l-11.75 0zm0 -20.14505l0 -2.875l1.609375 0q-1.875 -1.53125 -1.875 -3.65625q0 -1.125 0.46875 -1.953125q0.46875 -0.828125 1.40625 -1.359375q-0.9375 -0.78125 -1.40625 -1.671875q-0.46875 -0.90625 -0.46875 -1.921875q0 -1.296875 0.53125 -2.1875q0.515625 -0.890625 1.546875 -1.34375q0.75 -0.3125 2.421875 -0.3125l7.515625 0l0 3.109375l-6.71875 0q-1.75 0 -2.25 0.3125q-0.671875 0.4375 -0.671875 1.328125q0 0.65625 0.40625 1.234375q0.390625 0.578125 1.171875 0.828125q0.765625 0.25 2.421875 0.25l5.640625 0l0 3.109375l-6.4375 0q-1.71875 0 -2.21875 0.171875q-0.5 0.15625 -0.734375 0.515625q-0.25 0.34375 -0.25 0.9375q0 0.71875 0.390625 1.296875q0.390625 0.578125 1.125 0.828125q0.71875 0.25 2.421875 0.25l5.703125 0l0 3.109375l-11.75 0zm12.03125 -25.017792l-16.78125 -4.015625l0 -2.328125l16.78125 4.0625l0 2.28125zm-16.5 -17.339264l5.96875 0q-1.765625 -1.515625 -1.765625 -3.59375q0 -1.078125 0.40625 -1.9375q0.390625 -0.875 1.015625 -1.296875q0.609375 -0.4375 1.375 -0.59375q0.75 -0.171875 2.328125 -0.171875l6.890625 0l0 3.109375l-6.203125 0q-1.84375 0 -2.34375 0.1875q-0.5 0.171875 -0.796875 0.625q-0.296875 0.4375 -0.296875 1.109375q0 0.78125 0.375 1.390625q0.375 0.609375 1.140625 0.890625q0.75 0.28125 2.234375 0.28125l5.890625 0l0 3.109375l-16.21875 0l0 -3.109375zm16.21875 -13.72995l0 3.109375l-11.75 0l0 -2.875l1.671875 0q-1.1875 -0.75 -1.5625 -1.34375q-0.375 -0.59375 -0.375 -1.34375q0 -1.0625 0.59375 -2.046875l2.703125 0.96875q-0.5 0.78125 -0.5 1.453125q0 0.65625 0.359375 1.109375q0.359375 0.453125 1.296875 0.71875q0.9375 0.25 3.9375 0.25l3.625 0z" fill-rule="nonzero"/></g></svg>